<svg xmlns="http://www.w3.org/2000/svg" xmlns:xlink="http://www.w3.org/1999/xlink" viewBox="404 257 1920 1080"><defs><style>.a{fill:none;}.b{clip-path:url(#a);}.c{fill:#36ceff;}.d{fill:#30c0ef;}.e{fill-opacity:0.3;fill:url(#b);}</style><clipPath id="a" transform="translate(404 257)"><rect class="a" width="1920" height="1080"/></clipPath><radialGradient id="b" cx="363.81" cy="959.29" r="1" gradientTransform="matrix(0, 612, 612, 0, -585724.54, -221853)" gradientUnits="userSpaceOnUse"><stop offset="0" stop-color="#fff"/><stop offset="1"/></radialGradient></defs><title>background</title><g class="b"><rect class="c" x="404" y="257" width="1920" height="1080"/><path class="d" d="M1067,0H854l28.07,1080H1042Z" transform="translate(404 257)"/><path class="d" d="M-305.17,461-404,585.55,568.91,1330.8l74.21-93.52Z" transform="translate(404 257)"/><path class="d" d="M2224.59,461l98.83,124.55L1350.51,1330.8l-74.21-93.52Z" transform="translate(404 257)"/><path class="d" d="M-.3-61-138,18.5,603.51,1260.93l103.39-59.7Z" transform="translate(404 257)"/><path class="d" d="M1919.72-61l137.7,79.5-741.5,1242.43-103.4-59.7Z" transform="translate(404 257)"/><path class="d" d="M498-257,324-210.38,721.36,1180.9l130.64-35Z" transform="translate(404 257)"/><path class="d" d="M1421.44-257l174,46.62L1198.06,1180.9l-130.64-35Z" transform="translate(404 257)"/><rect class="e" x="404" y="257" width="1920" height="1080"/></g></svg>
