<svg viewBox="0 0 1920 1080" fill="none" xmlns="http://www.w3.org/2000/svg">
<style>
<![CDATA[
@import url("https://fonts.googleapis.com/css2?family=Dela+Gothic+One");
.flipped {
    transform: rotate(10deg);
}
* {
    font: 50px 'Dela Gothic One';
}
]]>
</style>
<g clip-path="url(#clip0_23_2)">
<g filter="url(#filter0_bii_23_2)">
<rect x="61" y="451" width="836" height="88" rx="20" fill="#FFE791"/>
<rect x="61.5" y="451.5" width="835" height="87" rx="19.5" stroke="black"/>
</g>
<g filter="url(#filter1_bii_23_2)">
<rect x="1022" y="451" width="836" height="88" rx="20" fill="#FFE791"/>
<rect x="1022.5" y="451.5" width="835" height="87" rx="19.5" stroke="black"/>
</g>
<g filter="url(#filter2_bii_23_2)">
<rect x="1022" y="571" width="836" height="88" rx="20" fill="#FFE791"/>
<rect x="1022.5" y="571.5" width="835" height="87" rx="19.5" stroke="black"/>
</g>
<g filter="url(#filter3_bii_23_2)">
<rect x="61" y="571" width="836" height="88" rx="20" fill="#FFE791"/>
<rect x="61.5" y="571.5" width="835" height="87" rx="19.5" stroke="black"/>
</g>
<g filter="url(#filter4_bii_23_2)">
<rect x="61" y="691" width="836" height="88" rx="20" fill="#FFE791"/>
<rect x="61.5" y="691.5" width="835" height="87" rx="19.5" stroke="black"/>
</g>
<g filter="url(#filter5_bii_23_2)">
<rect x="1022" y="691" width="836" height="88" rx="20" fill="#FFE791"/>
<rect x="1022.5" y="691.5" width="835" height="87" rx="19.5" stroke="black"/>
</g>
<g filter="url(#filter6_bii_23_2)">
<rect x="61" y="811" width="836" height="88" rx="20" fill="#FFE791"/>
<rect x="61.5" y="811.5" width="835" height="87" rx="19.5" stroke="black"/>
</g>
<g filter="url(#filter7_bii_23_2)">
<rect x="1022" y="811" width="836" height="88" rx="20" fill="#FFE791"/>
<rect x="1022.5" y="811.5" width="835" height="87" rx="19.5" stroke="black"/>
</g>
<g filter="url(#filter8_bii_23_2)">
<rect x="61" y="931" width="836" height="88" rx="20" fill="#FFE791"/>
<rect x="61.5" y="931.5" width="835" height="87" rx="19.5" stroke="black"/>
</g>
<g filter="url(#filter9_bii_23_2)">
<rect x="1022" y="931" width="836" height="88" rx="20" fill="#FFE791"/>
<rect x="1022.5" y="931.5" width="835" height="87" rx="19.5" stroke="black"/>
</g>
<g filter="url(#filter10_di_23_2)">
<rect x="530" y="108" width="861" height="221" rx="20" fill="#FFE790"/>
<rect x="530.5" y="108.5" width="860" height="220" rx="19.5" stroke="black"/>
</g>
<rect x="61.5" y="64.5" width="428" height="308" rx="22.5" fill="#C6F1FF" stroke="black"/>
<rect x="86.5" y="83.5" width="378" height="130" rx="22.5" fill="#0066FF" stroke="black"/>
<circle cx="54.5" cy="54.5" r="55" transform="matrix(-1 0 0 1 197 239)" fill="#0066FF" stroke="black"/>
<circle cx="58.5" cy="58.5" r="60" transform="matrix(-1 0 0 1 201 235)" stroke="black" stroke-width="3"/>
<path d="M123.264 270.953C132.424 267.369 139.572 274.753 142 278.893V319C138.739 316.761 130.259 310.816 122.431 304.952C114.603 299.089 112.924 289.887 113.063 286.018C112.647 282.489 114.104 274.536 123.264 270.953Z" fill="white"/>
<path d="M160.736 270.953C151.576 267.369 144.428 274.753 142 278.893V319C145.261 316.761 153.741 310.816 161.569 304.952C169.397 299.089 171.076 289.887 170.937 286.018C171.353 282.489 169.896 274.536 160.736 270.953Z" fill="white"/>
<circle cx="54.5" cy="54.5" r="55" transform="matrix(-1 0 0 1 461 239)" fill="#0066FF" stroke="black"/>
<circle cx="58.5" cy="58.5" r="60" transform="matrix(-1 0 0 1 465 235)" stroke="black" stroke-width="3"/>
<path d="M387.264 270.953C396.424 267.369 403.572 274.753 406 278.893V319C402.739 316.761 394.259 310.816 386.431 304.952C378.603 299.089 376.924 289.887 377.063 286.018C376.647 282.489 378.104 274.536 387.264 270.953Z" fill="white"/>
<path d="M424.736 270.953C415.576 267.369 408.428 274.753 406 278.893V319C409.261 316.761 417.741 310.816 425.569 304.952C433.397 299.089 435.076 289.887 434.937 286.018C435.353 282.489 433.896 274.536 424.736 270.953Z" fill="white"/>
<circle cx="54.5" cy="54.5" r="55" transform="matrix(-1 0 0 1 330 239)" fill="#0066FF" stroke="black"/>
<circle cx="58.5" cy="58.5" r="60" transform="matrix(-1 0 0 1 334 235)" stroke="black" stroke-width="3"/>
<path d="M256.264 270.953C265.424 267.369 272.572 274.753 275 278.893V319C271.739 316.761 263.259 310.816 255.431 304.952C247.603 299.089 245.924 289.887 246.063 286.018C245.647 282.489 247.104 274.536 256.264 270.953Z" fill="white"/>
<path d="M293.736 270.953C284.576 267.369 277.428 274.753 275 278.893V319C278.261 316.761 286.741 310.816 294.569 304.952C302.397 299.089 304.076 289.887 303.937 286.018C304.353 282.489 302.896 274.536 293.736 270.953Z" fill="white"/>
<rect x="1429.5" y="64.5" width="428" height="308" rx="22.5" fill="#C6F1FF" stroke="black"/>
<rect x="1454.5" y="83.5" width="378" height="130" rx="22.5" fill="#FF0000" stroke="black"/>
<circle cx="54.5" cy="54.5" r="55" transform="matrix(-1 0 0 1 1565 239)" fill="#FF0000" stroke="black"/>
<circle cx="58.5" cy="58.5" r="60" transform="matrix(-1 0 0 1 1569 235)" stroke="black" stroke-width="3"/>
<path d="M1491.26 270.953C1500.42 267.369 1507.57 274.753 1510 278.893V319C1506.74 316.761 1498.26 310.816 1490.43 304.952C1482.6 299.089 1480.92 289.887 1481.06 286.018C1480.65 282.489 1482.1 274.536 1491.26 270.953Z" fill="white"/>
<path d="M1528.74 270.953C1519.58 267.369 1512.43 274.753 1510 278.893V319C1513.26 316.761 1521.74 310.816 1529.57 304.952C1537.4 299.089 1539.08 289.887 1538.94 286.018C1539.35 282.489 1537.9 274.536 1528.74 270.953Z" fill="white"/>
<circle cx="54.5" cy="54.5" r="55" transform="matrix(-1 0 0 1 1829 239)" fill="#FF0000" stroke="black"/>
<circle cx="58.5" cy="58.5" r="60" transform="matrix(-1 0 0 1 1833 235)" stroke="black" stroke-width="3"/>
<path d="M1755.26 270.953C1764.42 267.369 1771.57 274.753 1774 278.893V319C1770.74 316.761 1762.26 310.816 1754.43 304.952C1746.6 299.089 1744.92 289.887 1745.06 286.018C1744.65 282.489 1746.1 274.536 1755.26 270.953Z" fill="white"/>
<path d="M1792.74 270.953C1783.58 267.369 1776.43 274.753 1774 278.893V319C1777.26 316.761 1785.74 310.816 1793.57 304.952C1801.4 299.089 1803.08 289.887 1802.94 286.018C1803.35 282.489 1801.9 274.536 1792.74 270.953Z" fill="white"/>
<circle cx="54.5" cy="54.5" r="55" transform="matrix(-1 0 0 1 1697 239)" fill="#FF0000" stroke="black"/>
<circle cx="58.5" cy="58.5" r="60" transform="matrix(-1 0 0 1 1701 235)" stroke="black" stroke-width="3"/>
<path d="M1623.26 270.953C1632.42 267.369 1639.57 274.753 1642 278.893V319C1638.74 316.761 1630.26 310.816 1622.43 304.952C1614.6 299.089 1612.92 289.887 1613.06 286.018C1612.65 282.489 1614.1 274.536 1623.26 270.953Z" fill="white"/>
<path d="M1660.74 270.953C1651.58 267.369 1644.43 274.753 1642 278.893V319C1645.26 316.761 1653.74 310.816 1661.57 304.952C1669.4 299.089 1671.08 289.887 1670.94 286.018C1671.35 282.489 1669.9 274.536 1660.74 270.953Z" fill="white"/>
<g id="react-root"></g>
</g>
<defs>
<filter id="filter0_bii_23_2" x="1" y="391" width="956" height="208" filterUnits="userSpaceOnUse" color-interpolation-filters="sRGB">
<feFlood flood-opacity="0" result="BackgroundImageFix"/>
<feGaussianBlur in="BackgroundImageFix" stdDeviation="30"/>
<feComposite in2="SourceAlpha" operator="in" result="effect1_backgroundBlur_23_2"/>
<feBlend mode="normal" in="SourceGraphic" in2="effect1_backgroundBlur_23_2" result="shape"/>
<feColorMatrix in="SourceAlpha" type="matrix" values="0 0 0 0 0 0 0 0 0 0 0 0 0 0 0 0 0 0 127 0" result="hardAlpha"/>
<feOffset/>
<feGaussianBlur stdDeviation="7.5"/>
<feComposite in2="hardAlpha" operator="arithmetic" k2="-1" k3="1"/>
<feColorMatrix type="matrix" values="0 0 0 0 1 0 0 0 0 1 0 0 0 0 1 0 0 0 0.25 0"/>
<feBlend mode="normal" in2="shape" result="effect2_innerShadow_23_2"/>
<feColorMatrix in="SourceAlpha" type="matrix" values="0 0 0 0 0 0 0 0 0 0 0 0 0 0 0 0 0 0 127 0" result="hardAlpha"/>
<feOffset dy="4"/>
<feGaussianBlur stdDeviation="2"/>
<feComposite in2="hardAlpha" operator="arithmetic" k2="-1" k3="1"/>
<feColorMatrix type="matrix" values="0 0 0 0 1 0 0 0 0 1 0 0 0 0 1 0 0 0 0.25 0"/>
<feBlend mode="normal" in2="effect2_innerShadow_23_2" result="effect3_innerShadow_23_2"/>
</filter>
<filter id="filter1_bii_23_2" x="962" y="391" width="956" height="208" filterUnits="userSpaceOnUse" color-interpolation-filters="sRGB">
<feFlood flood-opacity="0" result="BackgroundImageFix"/>
<feGaussianBlur in="BackgroundImageFix" stdDeviation="30"/>
<feComposite in2="SourceAlpha" operator="in" result="effect1_backgroundBlur_23_2"/>
<feBlend mode="normal" in="SourceGraphic" in2="effect1_backgroundBlur_23_2" result="shape"/>
<feColorMatrix in="SourceAlpha" type="matrix" values="0 0 0 0 0 0 0 0 0 0 0 0 0 0 0 0 0 0 127 0" result="hardAlpha"/>
<feOffset/>
<feGaussianBlur stdDeviation="7.5"/>
<feComposite in2="hardAlpha" operator="arithmetic" k2="-1" k3="1"/>
<feColorMatrix type="matrix" values="0 0 0 0 1 0 0 0 0 1 0 0 0 0 1 0 0 0 0.25 0"/>
<feBlend mode="normal" in2="shape" result="effect2_innerShadow_23_2"/>
<feColorMatrix in="SourceAlpha" type="matrix" values="0 0 0 0 0 0 0 0 0 0 0 0 0 0 0 0 0 0 127 0" result="hardAlpha"/>
<feOffset dy="4"/>
<feGaussianBlur stdDeviation="2"/>
<feComposite in2="hardAlpha" operator="arithmetic" k2="-1" k3="1"/>
<feColorMatrix type="matrix" values="0 0 0 0 1 0 0 0 0 1 0 0 0 0 1 0 0 0 0.25 0"/>
<feBlend mode="normal" in2="effect2_innerShadow_23_2" result="effect3_innerShadow_23_2"/>
</filter>
<filter id="filter2_bii_23_2" x="962" y="511" width="956" height="208" filterUnits="userSpaceOnUse" color-interpolation-filters="sRGB">
<feFlood flood-opacity="0" result="BackgroundImageFix"/>
<feGaussianBlur in="BackgroundImageFix" stdDeviation="30"/>
<feComposite in2="SourceAlpha" operator="in" result="effect1_backgroundBlur_23_2"/>
<feBlend mode="normal" in="SourceGraphic" in2="effect1_backgroundBlur_23_2" result="shape"/>
<feColorMatrix in="SourceAlpha" type="matrix" values="0 0 0 0 0 0 0 0 0 0 0 0 0 0 0 0 0 0 127 0" result="hardAlpha"/>
<feOffset/>
<feGaussianBlur stdDeviation="7.5"/>
<feComposite in2="hardAlpha" operator="arithmetic" k2="-1" k3="1"/>
<feColorMatrix type="matrix" values="0 0 0 0 1 0 0 0 0 1 0 0 0 0 1 0 0 0 0.25 0"/>
<feBlend mode="normal" in2="shape" result="effect2_innerShadow_23_2"/>
<feColorMatrix in="SourceAlpha" type="matrix" values="0 0 0 0 0 0 0 0 0 0 0 0 0 0 0 0 0 0 127 0" result="hardAlpha"/>
<feOffset dy="4"/>
<feGaussianBlur stdDeviation="2"/>
<feComposite in2="hardAlpha" operator="arithmetic" k2="-1" k3="1"/>
<feColorMatrix type="matrix" values="0 0 0 0 1 0 0 0 0 1 0 0 0 0 1 0 0 0 0.25 0"/>
<feBlend mode="normal" in2="effect2_innerShadow_23_2" result="effect3_innerShadow_23_2"/>
</filter>
<filter id="filter3_bii_23_2" x="1" y="511" width="956" height="208" filterUnits="userSpaceOnUse" color-interpolation-filters="sRGB">
<feFlood flood-opacity="0" result="BackgroundImageFix"/>
<feGaussianBlur in="BackgroundImageFix" stdDeviation="30"/>
<feComposite in2="SourceAlpha" operator="in" result="effect1_backgroundBlur_23_2"/>
<feBlend mode="normal" in="SourceGraphic" in2="effect1_backgroundBlur_23_2" result="shape"/>
<feColorMatrix in="SourceAlpha" type="matrix" values="0 0 0 0 0 0 0 0 0 0 0 0 0 0 0 0 0 0 127 0" result="hardAlpha"/>
<feOffset/>
<feGaussianBlur stdDeviation="7.5"/>
<feComposite in2="hardAlpha" operator="arithmetic" k2="-1" k3="1"/>
<feColorMatrix type="matrix" values="0 0 0 0 1 0 0 0 0 1 0 0 0 0 1 0 0 0 0.25 0"/>
<feBlend mode="normal" in2="shape" result="effect2_innerShadow_23_2"/>
<feColorMatrix in="SourceAlpha" type="matrix" values="0 0 0 0 0 0 0 0 0 0 0 0 0 0 0 0 0 0 127 0" result="hardAlpha"/>
<feOffset dy="4"/>
<feGaussianBlur stdDeviation="2"/>
<feComposite in2="hardAlpha" operator="arithmetic" k2="-1" k3="1"/>
<feColorMatrix type="matrix" values="0 0 0 0 1 0 0 0 0 1 0 0 0 0 1 0 0 0 0.25 0"/>
<feBlend mode="normal" in2="effect2_innerShadow_23_2" result="effect3_innerShadow_23_2"/>
</filter>
<filter id="filter4_bii_23_2" x="1" y="631" width="956" height="208" filterUnits="userSpaceOnUse" color-interpolation-filters="sRGB">
<feFlood flood-opacity="0" result="BackgroundImageFix"/>
<feGaussianBlur in="BackgroundImageFix" stdDeviation="30"/>
<feComposite in2="SourceAlpha" operator="in" result="effect1_backgroundBlur_23_2"/>
<feBlend mode="normal" in="SourceGraphic" in2="effect1_backgroundBlur_23_2" result="shape"/>
<feColorMatrix in="SourceAlpha" type="matrix" values="0 0 0 0 0 0 0 0 0 0 0 0 0 0 0 0 0 0 127 0" result="hardAlpha"/>
<feOffset/>
<feGaussianBlur stdDeviation="7.5"/>
<feComposite in2="hardAlpha" operator="arithmetic" k2="-1" k3="1"/>
<feColorMatrix type="matrix" values="0 0 0 0 1 0 0 0 0 1 0 0 0 0 1 0 0 0 0.25 0"/>
<feBlend mode="normal" in2="shape" result="effect2_innerShadow_23_2"/>
<feColorMatrix in="SourceAlpha" type="matrix" values="0 0 0 0 0 0 0 0 0 0 0 0 0 0 0 0 0 0 127 0" result="hardAlpha"/>
<feOffset dy="4"/>
<feGaussianBlur stdDeviation="2"/>
<feComposite in2="hardAlpha" operator="arithmetic" k2="-1" k3="1"/>
<feColorMatrix type="matrix" values="0 0 0 0 1 0 0 0 0 1 0 0 0 0 1 0 0 0 0.25 0"/>
<feBlend mode="normal" in2="effect2_innerShadow_23_2" result="effect3_innerShadow_23_2"/>
</filter>
<filter id="filter5_bii_23_2" x="962" y="631" width="956" height="208" filterUnits="userSpaceOnUse" color-interpolation-filters="sRGB">
<feFlood flood-opacity="0" result="BackgroundImageFix"/>
<feGaussianBlur in="BackgroundImageFix" stdDeviation="30"/>
<feComposite in2="SourceAlpha" operator="in" result="effect1_backgroundBlur_23_2"/>
<feBlend mode="normal" in="SourceGraphic" in2="effect1_backgroundBlur_23_2" result="shape"/>
<feColorMatrix in="SourceAlpha" type="matrix" values="0 0 0 0 0 0 0 0 0 0 0 0 0 0 0 0 0 0 127 0" result="hardAlpha"/>
<feOffset/>
<feGaussianBlur stdDeviation="7.5"/>
<feComposite in2="hardAlpha" operator="arithmetic" k2="-1" k3="1"/>
<feColorMatrix type="matrix" values="0 0 0 0 1 0 0 0 0 1 0 0 0 0 1 0 0 0 0.25 0"/>
<feBlend mode="normal" in2="shape" result="effect2_innerShadow_23_2"/>
<feColorMatrix in="SourceAlpha" type="matrix" values="0 0 0 0 0 0 0 0 0 0 0 0 0 0 0 0 0 0 127 0" result="hardAlpha"/>
<feOffset dy="4"/>
<feGaussianBlur stdDeviation="2"/>
<feComposite in2="hardAlpha" operator="arithmetic" k2="-1" k3="1"/>
<feColorMatrix type="matrix" values="0 0 0 0 1 0 0 0 0 1 0 0 0 0 1 0 0 0 0.25 0"/>
<feBlend mode="normal" in2="effect2_innerShadow_23_2" result="effect3_innerShadow_23_2"/>
</filter>
<filter id="filter6_bii_23_2" x="1" y="751" width="956" height="208" filterUnits="userSpaceOnUse" color-interpolation-filters="sRGB">
<feFlood flood-opacity="0" result="BackgroundImageFix"/>
<feGaussianBlur in="BackgroundImageFix" stdDeviation="30"/>
<feComposite in2="SourceAlpha" operator="in" result="effect1_backgroundBlur_23_2"/>
<feBlend mode="normal" in="SourceGraphic" in2="effect1_backgroundBlur_23_2" result="shape"/>
<feColorMatrix in="SourceAlpha" type="matrix" values="0 0 0 0 0 0 0 0 0 0 0 0 0 0 0 0 0 0 127 0" result="hardAlpha"/>
<feOffset/>
<feGaussianBlur stdDeviation="7.5"/>
<feComposite in2="hardAlpha" operator="arithmetic" k2="-1" k3="1"/>
<feColorMatrix type="matrix" values="0 0 0 0 1 0 0 0 0 1 0 0 0 0 1 0 0 0 0.25 0"/>
<feBlend mode="normal" in2="shape" result="effect2_innerShadow_23_2"/>
<feColorMatrix in="SourceAlpha" type="matrix" values="0 0 0 0 0 0 0 0 0 0 0 0 0 0 0 0 0 0 127 0" result="hardAlpha"/>
<feOffset dy="4"/>
<feGaussianBlur stdDeviation="2"/>
<feComposite in2="hardAlpha" operator="arithmetic" k2="-1" k3="1"/>
<feColorMatrix type="matrix" values="0 0 0 0 1 0 0 0 0 1 0 0 0 0 1 0 0 0 0.25 0"/>
<feBlend mode="normal" in2="effect2_innerShadow_23_2" result="effect3_innerShadow_23_2"/>
</filter>
<filter id="filter7_bii_23_2" x="962" y="751" width="956" height="208" filterUnits="userSpaceOnUse" color-interpolation-filters="sRGB">
<feFlood flood-opacity="0" result="BackgroundImageFix"/>
<feGaussianBlur in="BackgroundImageFix" stdDeviation="30"/>
<feComposite in2="SourceAlpha" operator="in" result="effect1_backgroundBlur_23_2"/>
<feBlend mode="normal" in="SourceGraphic" in2="effect1_backgroundBlur_23_2" result="shape"/>
<feColorMatrix in="SourceAlpha" type="matrix" values="0 0 0 0 0 0 0 0 0 0 0 0 0 0 0 0 0 0 127 0" result="hardAlpha"/>
<feOffset/>
<feGaussianBlur stdDeviation="7.5"/>
<feComposite in2="hardAlpha" operator="arithmetic" k2="-1" k3="1"/>
<feColorMatrix type="matrix" values="0 0 0 0 1 0 0 0 0 1 0 0 0 0 1 0 0 0 0.25 0"/>
<feBlend mode="normal" in2="shape" result="effect2_innerShadow_23_2"/>
<feColorMatrix in="SourceAlpha" type="matrix" values="0 0 0 0 0 0 0 0 0 0 0 0 0 0 0 0 0 0 127 0" result="hardAlpha"/>
<feOffset dy="4"/>
<feGaussianBlur stdDeviation="2"/>
<feComposite in2="hardAlpha" operator="arithmetic" k2="-1" k3="1"/>
<feColorMatrix type="matrix" values="0 0 0 0 1 0 0 0 0 1 0 0 0 0 1 0 0 0 0.25 0"/>
<feBlend mode="normal" in2="effect2_innerShadow_23_2" result="effect3_innerShadow_23_2"/>
</filter>
<filter id="filter8_bii_23_2" x="1" y="871" width="956" height="208" filterUnits="userSpaceOnUse" color-interpolation-filters="sRGB">
<feFlood flood-opacity="0" result="BackgroundImageFix"/>
<feGaussianBlur in="BackgroundImageFix" stdDeviation="30"/>
<feComposite in2="SourceAlpha" operator="in" result="effect1_backgroundBlur_23_2"/>
<feBlend mode="normal" in="SourceGraphic" in2="effect1_backgroundBlur_23_2" result="shape"/>
<feColorMatrix in="SourceAlpha" type="matrix" values="0 0 0 0 0 0 0 0 0 0 0 0 0 0 0 0 0 0 127 0" result="hardAlpha"/>
<feOffset/>
<feGaussianBlur stdDeviation="7.5"/>
<feComposite in2="hardAlpha" operator="arithmetic" k2="-1" k3="1"/>
<feColorMatrix type="matrix" values="0 0 0 0 1 0 0 0 0 1 0 0 0 0 1 0 0 0 0.25 0"/>
<feBlend mode="normal" in2="shape" result="effect2_innerShadow_23_2"/>
<feColorMatrix in="SourceAlpha" type="matrix" values="0 0 0 0 0 0 0 0 0 0 0 0 0 0 0 0 0 0 127 0" result="hardAlpha"/>
<feOffset dy="4"/>
<feGaussianBlur stdDeviation="2"/>
<feComposite in2="hardAlpha" operator="arithmetic" k2="-1" k3="1"/>
<feColorMatrix type="matrix" values="0 0 0 0 1 0 0 0 0 1 0 0 0 0 1 0 0 0 0.25 0"/>
<feBlend mode="normal" in2="effect2_innerShadow_23_2" result="effect3_innerShadow_23_2"/>
</filter>
<filter id="filter9_bii_23_2" x="962" y="871" width="956" height="208" filterUnits="userSpaceOnUse" color-interpolation-filters="sRGB">
<feFlood flood-opacity="0" result="BackgroundImageFix"/>
<feGaussianBlur in="BackgroundImageFix" stdDeviation="30"/>
<feComposite in2="SourceAlpha" operator="in" result="effect1_backgroundBlur_23_2"/>
<feBlend mode="normal" in="SourceGraphic" in2="effect1_backgroundBlur_23_2" result="shape"/>
<feColorMatrix in="SourceAlpha" type="matrix" values="0 0 0 0 0 0 0 0 0 0 0 0 0 0 0 0 0 0 127 0" result="hardAlpha"/>
<feOffset/>
<feGaussianBlur stdDeviation="7.5"/>
<feComposite in2="hardAlpha" operator="arithmetic" k2="-1" k3="1"/>
<feColorMatrix type="matrix" values="0 0 0 0 1 0 0 0 0 1 0 0 0 0 1 0 0 0 0.25 0"/>
<feBlend mode="normal" in2="shape" result="effect2_innerShadow_23_2"/>
<feColorMatrix in="SourceAlpha" type="matrix" values="0 0 0 0 0 0 0 0 0 0 0 0 0 0 0 0 0 0 127 0" result="hardAlpha"/>
<feOffset dy="4"/>
<feGaussianBlur stdDeviation="2"/>
<feComposite in2="hardAlpha" operator="arithmetic" k2="-1" k3="1"/>
<feColorMatrix type="matrix" values="0 0 0 0 1 0 0 0 0 1 0 0 0 0 1 0 0 0 0.25 0"/>
<feBlend mode="normal" in2="effect2_innerShadow_23_2" result="effect3_innerShadow_23_2"/>
</filter>
<filter id="filter10_di_23_2" x="506.2" y="84.2" width="908.6" height="268.6" filterUnits="userSpaceOnUse" color-interpolation-filters="sRGB">
<feFlood flood-opacity="0" result="BackgroundImageFix"/>
<feColorMatrix in="SourceAlpha" type="matrix" values="0 0 0 0 0 0 0 0 0 0 0 0 0 0 0 0 0 0 127 0" result="hardAlpha"/>
<feOffset/>
<feGaussianBlur stdDeviation="11.9"/>
<feComposite in2="hardAlpha" operator="out"/>
<feColorMatrix type="matrix" values="0 0 0 0 0 0 0 0 0 0 0 0 0 0 0 0 0 0 0.25 0"/>
<feBlend mode="normal" in2="BackgroundImageFix" result="effect1_dropShadow_23_2"/>
<feBlend mode="normal" in="SourceGraphic" in2="effect1_dropShadow_23_2" result="shape"/>
<feColorMatrix in="SourceAlpha" type="matrix" values="0 0 0 0 0 0 0 0 0 0 0 0 0 0 0 0 0 0 127 0" result="hardAlpha"/>
<feOffset dy="4"/>
<feGaussianBlur stdDeviation="2"/>
<feComposite in2="hardAlpha" operator="arithmetic" k2="-1" k3="1"/>
<feColorMatrix type="matrix" values="0 0 0 0 0 0 0 0 0 0 0 0 0 0 0 0 0 0 0.25 0"/>
<feBlend mode="normal" in2="shape" result="effect2_innerShadow_23_2"/>
</filter>
<radialGradient id="paint0_radial_23_2" cx="0" cy="0" r="1" gradientUnits="userSpaceOnUse" gradientTransform="translate(960 540) rotate(90) scale(612 612)">
<stop stop-color="white"/>
<stop offset="1"/>
</radialGradient>
<clipPath id="clip0_23_2">
<rect width="1920" height="1080" fill="white"/>
</clipPath>
</defs>
</svg>
